<svg xmlns="http://www.w3.org/2000/svg" version="1.1" xmlns:xlink="http://www.w3.org/1999/xlink" xmlns:svgjs="http://svgjs.dev/svgjs" width="2000" height="621" viewBox="0 0 2000 621"><g transform="matrix(1,0,0,1,-1.2120631200167509,-0.1744124114512715)"><svg viewBox="0 0 396 123" data-background-color="#ffffff" preserveAspectRatio="xMidYMid meet" height="621" width="2000" xmlns="http://www.w3.org/2000/svg" xmlns:xlink="http://www.w3.org/1999/xlink"><g id="tight-bounds" transform="matrix(1,0,0,1,0.23998849776330644,0.03454545347585736)"><svg viewBox="0 0 395.52 122.93090909304826" height="122.93090909304826" width="395.52"><g><svg viewBox="0 0 567.2338449282986 176.30100178342664" height="122.93090909304826" width="395.52"><g transform="matrix(1,0,0,1,171.71384492829856,3.104190335308786)"><svg viewBox="0 0 395.52 170.09262111280907" height="170.09262111280907" width="395.52"><g id="textblocktransform"><svg viewBox="0 0 395.52 170.09262111280907" height="170.09262111280907" width="395.52" id="textblock"><g><svg viewBox="0 0 395.52 122.82218732266045" height="122.82218732266045" width="395.52"><rect width="395.52" height="122.82218732266045" x="0" y="0" opacity="1" fill="#0063db" data-fill-palette-color="tertiary"></rect><g transform="matrix(1,0,0,1,23.461705032,23.46170503200001)"><svg width="348.596589936" viewBox="1.809999942779541 -36.040000915527344 167.72999572753906 36.53000259399414" height="75.89877725866044" data-palette-color="#ffffff"><path d="M22.19-9.18L22.19-9.18Q22.19-10.62 21.59-11.63 21-12.65 19.36-13.51 17.72-14.38 14.65-15.33L14.65-15.33Q12.13-16.09 10-17.07 7.86-18.04 6.27-19.32 4.69-20.61 3.8-22.3 2.91-24 2.91-26.22L2.91-26.22Q2.91-29.13 4.52-31.34 6.13-33.54 8.98-34.79 11.84-36.04 15.6-36.04L15.6-36.04Q19.6-36.04 22.49-34.58 25.37-33.13 26.92-30.66 28.47-28.2 28.47-25.17L28.47-25.17 22.17-25.17Q22.17-26.86 21.45-28.19 20.73-29.52 19.26-30.26 17.8-31.01 15.53-31.01L15.53-31.01Q13.4-31.01 11.99-30.37 10.57-29.74 9.89-28.66 9.2-27.59 9.2-26.22L9.2-26.22Q9.2-24.93 10.03-23.93 10.86-22.92 12.55-22.11 14.23-21.29 16.75-20.53L16.75-20.53Q20.7-19.38 23.32-17.85 25.93-16.31 27.21-14.21 28.49-12.11 28.49-9.23L28.49-9.23Q28.49-6.23 26.93-4.04 25.37-1.86 22.51-0.68 19.65 0.49 15.8 0.49L15.8 0.49Q13.23 0.49 10.74-0.21 8.25-0.9 6.24-2.31 4.22-3.71 3.02-5.83 1.81-7.96 1.81-10.84L1.81-10.84 8.11-10.84Q8.11-9.13 8.69-7.93 9.28-6.74 10.33-5.97 11.38-5.2 12.78-4.86 14.18-4.52 15.8-4.52L15.8-4.52Q17.92-4.52 19.34-5.11 20.75-5.71 21.47-6.76 22.19-7.81 22.19-9.18ZM44.24 0L36.67 0 36.72-5.05 44.24-5.05Q47.51-5.05 49.7-6.47 51.9-7.89 53.02-10.53 54.15-13.18 54.15-16.87L54.15-16.87 54.15-18.73Q54.15-22.51 53.04-25.12 51.93-27.73 49.75-29.1 47.58-30.47 44.46-30.47L44.46-30.47 36.52-30.47 36.52-35.55 44.46-35.55Q49.22-35.55 52.82-33.45 56.42-31.35 58.44-27.56 60.47-23.78 60.47-18.68L60.47-18.68 60.47-16.87Q60.47-11.74 58.44-7.96 56.42-4.17 52.77-2.09 49.12 0 44.24 0L44.24 0ZM40.18-35.55L40.18 0 33.88 0 33.88-35.55 40.18-35.55ZM106.34-18.29L106.34-4.57Q105.56-3.59 103.97-2.4 102.39-1.22 99.74-0.37 97.09 0.49 93.16 0.49L93.16 0.49Q88.66 0.49 85.23-1.51 81.8-3.52 79.88-7.35 77.95-11.18 77.95-16.58L77.95-16.58 77.95-18.97Q77.95-24.39 79.73-28.21 81.51-32.03 84.79-34.03 88.08-36.04 92.62-36.04L92.62-36.04Q97.01-36.04 99.91-34.57 102.8-33.11 104.36-30.53 105.93-27.95 106.32-24.61L106.32-24.61 100.14-24.61Q99.87-26.46 99.04-27.89 98.21-29.32 96.67-30.15 95.13-30.98 92.74-30.98L92.74-30.98Q89.93-30.98 88.05-29.58 86.17-28.17 85.25-25.5 84.32-22.83 84.32-19.02L84.32-19.02 84.32-16.58Q84.32-12.72 85.41-10.05 86.49-7.37 88.52-5.97 90.54-4.57 93.4-4.57L93.4-4.57Q95.45-4.57 96.77-4.91 98.09-5.25 98.86-5.74 99.63-6.23 100.04-6.67L100.04-6.67 100.04-13.55 92.77-13.55 92.77-18.29 106.34-18.29ZM136.32-5.05L136.32 0 117.54 0 117.54-5.05 136.32-5.05ZM119.3-35.55L119.3 0 113 0 113-35.55 119.3-35.55ZM133.85-20.8L133.85-15.82 117.54-15.82 117.54-20.8 133.85-20.8ZM136.2-35.55L136.2-30.47 117.54-30.47 117.54-35.55 136.2-35.55ZM169.54-35.55L169.54 0 163.22 0 147.55-25.05 147.55 0 141.25 0 141.25-35.55 147.55-35.55 163.27-10.45 163.27-35.55 169.54-35.55Z" opacity="1" transform="matrix(1,0,0,1,0,0)" fill="#ffffff" class="wordmark-text-0" data-fill-palette-color="quaternary" id="text-0"></path></svg></g></svg></g><g transform="matrix(1,0,0,1,0,134.55303983866045)"><svg viewBox="0 0 395.52 35.53958127414862" height="35.53958127414862" width="395.52"><g transform="matrix(1,0,0,1,0,0)"><svg width="395.52" viewBox="1.149999976158142 -37.849998474121094 556.3899536132812 50" height="35.53958127414862" data-palette-color="#ffffff"><path d="M13.85-31.45L7.5-25.05 1.15-31.45 7.5-37.8 13.85-31.45ZM12 0L3 0 3-16.55 1.95-20.55 2.95-23.6 12-23.6 12 0ZM17.6-15.05L16.6-20.55 18.15-23.6 25.6-23.6 25.6-21.45 26.05-21.15Q26.6-21.65 27.57-22.33 28.55-23 29.95-23.55 31.35-24.1 33.1-24.1L33.1-24.1Q38.3-24.1 40.55-20.65L40.55-20.65Q41.45-21.9 43.27-23.03 45.1-24.15 48.35-24.15L48.35-24.15Q52.85-24.15 55.1-21.6 57.35-19.05 57.35-14.45L57.35-14.45 57.35-8.05 58.4-3.05 57.35 0 48.35 0 48.35-13.15Q48.35-15.05 47.52-16.07 46.7-17.1 44.95-17.1L44.95-17.1Q43.8-17.1 42.95-16.25 42.1-15.4 42.1-14.1L42.1-14.1 42.1 0 33.1 0 33.1-13.1Q33.1-15 32.27-16.03 31.45-17.05 29.7-17.05L29.7-17.05 26.6-16.1 26.6 0 17.6 0 17.6-15.05ZM69.9 0.5L69.9 0.5Q67.75 0.5 65.92-0.13 64.1-0.75 63-2.3 61.9-3.85 61.9-6.6L61.9-6.6Q61.9-9.1 63.15-10.75 64.4-12.4 66.55-13.2 68.7-14 71.4-14L71.4-14Q74-14 75.3-13.43 76.6-12.85 77.55-12.25L77.55-12.25 77.9-12.55Q77.9-14.05 77.65-15.05 77.4-16.05 76.5-16.57 75.6-17.1 73.7-17.1L73.7-17.1Q71.85-17.1 69.77-16.78 67.7-16.45 65.97-15.98 64.25-15.5 63.4-15.05L63.4-15.05 63.4-22.55Q64.95-23.1 67.82-23.58 70.7-24.05 74.9-24.05L74.9-24.05Q79.4-24.05 82.02-22.93 84.65-21.8 85.8-19.68 86.95-17.55 86.95-14.6L86.95-14.6 86.95-7.95 87.95-2.9 86.95 0.05 78.4 0.05 78.4-2.4 77.9-2.65Q77.5-2.25 76.5-1.5 75.5-0.75 73.85-0.13 72.2 0.5 69.9 0.5ZM74.15-6.05L74.15-6.05Q75.5-6.05 76.47-6.3 77.45-6.55 77.9-6.75L77.9-6.75 77.9-7.7Q77.9-8.35 76.97-8.95 76.05-9.55 74.1-9.55L74.1-9.55Q71.4-9.55 71.4-7.65L71.4-7.65Q71.4-6.85 72-6.45 72.6-6.05 74.15-6.05ZM102.74 12.15L102.74 12.15Q101.49 12.15 99.89 12.08 98.29 12 97.29 11.9L97.29 11.9 91.19 8.95 93.69 2.45 101.54 5Q108.19 5 108.19-0.55L108.19-0.55 108.19-1.5 107.69-1.75Q106.99-1.05 105.47-0.33 103.94 0.4 100.69 0.4L100.69 0.4Q98.34 0.4 96.14-0.78 93.94-1.95 92.57-4.55 91.19-7.15 91.19-11.3L91.19-11.3Q91.19-15.95 92.59-18.78 93.99-21.6 96.17-22.9 98.34-24.2 100.69-24.2L100.69-24.2Q103.29-24.2 104.97-23.45 106.64-22.7 107.19-22L107.19-22 107.19-23.65 116.24-23.65 116.74-20.65 116.19-17.65 116.24-0.05Q116.24 4.25 114.57 6.95 112.89 9.65 109.87 10.9 106.84 12.15 102.74 12.15ZM104.44-6.65L104.44-6.65Q105.34-6.65 106.09-6.9 106.84-7.15 107.19-7.35L107.19-7.35 107.19-16.7Q106.99-16.85 106.44-17 105.89-17.15 104.94-17.15L104.94-17.15Q102.99-17.15 101.84-15.9 100.69-14.65 100.69-11.85L100.69-11.85Q100.69-9.1 101.79-7.88 102.89-6.65 104.44-6.65ZM132.59-31.45L126.24-25.05 119.89-31.45 126.24-37.8 132.59-31.45ZM130.74 0L121.74 0 121.74-16.55 120.69-20.55 121.69-23.6 130.74-23.6 130.74 0ZM145.34 0L136.34 0 136.34-15.05 135.34-20.55 136.89-23.6 144.34-23.6 144.34-21.45 144.79-21.15Q145.34-21.65 146.31-22.33 147.29-23 148.69-23.55 150.09-24.1 151.84-24.1L151.84-24.1Q156.34-24.1 158.59-21.55 160.84-19 160.84-14.4L160.84-14.4 160.84-8.05 161.89-3.05 160.84 0 151.84 0 151.84-13.1Q151.84-15 151.01-16.03 150.19-17.05 148.44-17.05L148.44-17.05 145.34-16.1 145.34 0ZM178.19 0.5L178.19 0.5Q174.34 0.5 171.34-0.65 168.34-1.8 166.63-4.5 164.94-7.2 164.94-11.8L164.94-11.8Q164.94-15.1 166.06-17.45 167.19-19.8 169.09-21.28 170.99-22.75 173.34-23.43 175.69-24.1 178.19-24.1L178.19-24.1Q182.49-24.1 184.81-23.25 187.13-22.4 187.88-21.9L187.88-21.9 190.38-13.95 189.38-10.85 173.88-10.85Q174.24-9 175.74-7.75 177.24-6.5 180.69-6.5L180.69-6.5Q183.38-6.5 185.34-7.1 187.28-7.7 188.38-8.15L188.38-8.15 188.38-1.45Q186.88-0.65 184.06-0.08 181.24 0.5 178.19 0.5ZM173.94-14.05L173.94-14.05 180.84-15.05 180.38-17.2Q180.03-17.4 179.36-17.5 178.69-17.6 178.19-17.6L178.19-17.6Q176.78-17.6 175.86-17 174.94-16.4 174.46-15.58 173.99-14.75 173.94-14.05ZM205.58-3.5L197.18 11.3 195.33 10.6 198.08 0 194.08-4 199.33-9.2 205.58-3.5ZM238.93 0L228.43 0 221.58-17.1 220.58-23.6 230.08-23.6 233.33-8 234.33-8 238.13-23.6 248.08-23.6 251.83-8 252.83-8 256.13-23.6 265.58-23.6 264.58-17.1 257.68 0 247.18 0 243.58-16.1 242.58-16.1 238.93 0ZM278.02 0L269.13 0 269.13-15.65 268.07-20.65 269.13-23.65 275.93-23.65 276.93-22.5Q276.93-22.5 277.63-22.93 278.32-23.35 279.6-23.75 280.88-24.15 282.57-24.15L282.57-24.15Q283.57-24.15 284.57-24 285.57-23.85 286.13-23.6L286.13-23.6 289.38-20.85 286.13-14.45 279.52-17.2 278.02-16.7 278.02 0ZM303.22-31.45L296.87-25.05 290.52-31.45 296.87-37.8 303.22-31.45ZM301.37 0L292.37 0 292.37-16.55 291.32-20.55 292.32-23.6 301.37-23.6 301.37 0ZM315.62 0.5L315.62 0.5Q312.22 0.5 310.17-1.5 308.12-3.5 308.12-6.55L308.12-6.55 308.12-17.45 304.47-17.45 304.47-22.2 307.62-24.65 311.17-30.85 317.07-30.85 317.07-23.6 324.07-23.6 324.07-17.1 317.07-17.1 317.07-6.4 324.07-6.45 324.07-1Q324.07-1 322.9-0.63 321.72-0.25 319.82 0.13 317.92 0.5 315.62 0.5ZM340.07 0.5L340.07 0.5Q336.22 0.5 333.22-0.65 330.22-1.8 328.52-4.5 326.82-7.2 326.82-11.8L326.82-11.8Q326.82-15.1 327.94-17.45 329.07-19.8 330.97-21.28 332.87-22.75 335.22-23.43 337.57-24.1 340.07-24.1L340.07-24.1Q344.37-24.1 346.69-23.25 349.02-22.4 349.77-21.9L349.77-21.9 352.27-13.95 351.27-10.85 335.77-10.85Q336.12-9 337.62-7.75 339.12-6.5 342.57-6.5L342.57-6.5Q345.27-6.5 347.22-7.1 349.17-7.7 350.27-8.15L350.27-8.15 350.27-1.45Q348.77-0.65 345.94-0.08 343.12 0.5 340.07 0.5ZM335.82-14.05L335.82-14.05 342.72-15.05 342.27-17.2Q341.92-17.4 341.24-17.5 340.57-17.6 340.07-17.6L340.07-17.6Q338.67-17.6 337.74-17 336.82-16.4 336.34-15.58 335.87-14.75 335.82-14.05ZM366.97-4L361.47 1.5 355.97-4 361.47-9.5 366.97-4ZM382.96-4L377.46 1.5 371.96-4 377.46-9.5 382.96-4ZM398.96-4L393.46 1.5 387.96-4 393.46-9.5 398.96-4ZM427.96 0.5L427.96 0.5Q424.11 0.5 421.11-0.65 418.11-1.8 416.41-4.5 414.71-7.2 414.71-11.8L414.71-11.8Q414.71-15.1 415.83-17.45 416.96-19.8 418.86-21.28 420.76-22.75 423.11-23.43 425.46-24.1 427.96-24.1L427.96-24.1Q432.26-24.1 434.58-23.25 436.91-22.4 437.66-21.9L437.66-21.9 440.16-13.95 439.16-10.85 423.66-10.85Q424.01-9 425.51-7.75 427.01-6.5 430.46-6.5L430.46-6.5Q433.16-6.5 435.11-7.1 437.06-7.7 438.16-8.15L438.16-8.15 438.16-1.45Q436.66-0.65 433.83-0.08 431.01 0.5 427.96 0.5ZM423.71-14.05L423.71-14.05 430.61-15.05 430.16-17.2Q429.81-17.4 429.13-17.5 428.46-17.6 427.96-17.6L427.96-17.6Q426.56-17.6 425.63-17 424.71-16.4 424.23-15.58 423.76-14.75 423.71-14.05ZM453.35 0L444.35 0 444.35-15.05 443.35-20.55 444.9-23.6 452.35-23.6 452.35-21.45 452.8-21.15Q453.35-21.65 454.33-22.33 455.3-23 456.7-23.55 458.1-24.1 459.85-24.1L459.85-24.1Q464.35-24.1 466.6-21.55 468.85-19 468.85-14.4L468.85-14.4 468.85-8.05 469.9-3.05 468.85 0 459.85 0 459.85-13.1Q459.85-15 459.03-16.03 458.2-17.05 456.45-17.05L456.45-17.05 453.35-16.1 453.35 0ZM489.55-31.5L483.2-25.1 476.85-31.5 483.2-37.85 489.55-31.5ZM476.65 12.15L476.65 12.15Q475.75 12.15 474.63 12.03 473.5 11.9 472.6 11.7L472.6 11.7 470.2 9.25 472.7 3.3 477.1 5Q478.25 5 478.65 4.28 479.05 3.55 479 2.38 478.95 1.2 478.75-0.05L478.75-0.05 478.75-16.65 477.7-21.15 478.7-23.65 487.7-23.65 487.7 2.1Q487.7 7.35 484.83 9.75 481.95 12.15 476.65 12.15ZM505.1 0.5L505.1 0.5Q499 0.5 495.65-2.4 492.3-5.3 492.3-11.8L492.3-11.8Q492.3-18.35 495.65-21.23 499-24.1 505.1-24.1L505.1-24.1Q511.35-24.1 514.57-21.23 517.8-18.35 517.8-11.8L517.8-11.8Q517.8-5.3 514.57-2.4 511.35 0.5 505.1 0.5ZM505.1-6L505.1-6Q507.15-6 507.95-7.53 508.75-9.05 508.75-11.8L508.75-11.8Q508.75-14.6 507.95-16.1 507.15-17.6 505.1-17.6L505.1-17.6Q503-17.6 502.17-16.1 501.35-14.6 501.35-11.8L501.35-11.8Q501.35-9.05 502.17-7.53 503-6 505.1-6ZM523.1 12.15L523.1 12.15 516.05 9.65 518.05 2.2 525.05 4.2Q527.2 4.2 528.17 3.08 529.15 1.95 529.65-0.05L529.65-0.05 524.5-0.05 519-17.15 518.05-23.65 527.55-23.65 530.3-7.15 531.3-7.15 534.05-23.65 543.55-23.65Q543.55-23.65 543.22-22.08 542.9-20.5 542.32-17.9 541.75-15.3 540.97-12.18 540.2-9.05 539.35-5.88 538.5-2.7 537.6-0.05L537.6-0.05Q536.25 4.1 534.37 6.8 532.5 9.5 529.8 10.83 527.1 12.15 523.1 12.15ZM557.54-4L552.04 1.5 546.54-4 552.04-9.5 557.54-4Z" opacity="1" transform="matrix(1,0,0,1,0,0)" fill="#ffffff" class="slogan-text-1" data-fill-palette-color="secondary" id="text-1"></path></svg></g></svg></g></svg></g></svg></g><g><svg viewBox="0 0 159.98299241229856 176.30100178342664" height="176.30100178342664" width="159.98299241229856"><g><svg xmlns="http://www.w3.org/2000/svg" xmlns:xlink="http://www.w3.org/1999/xlink" version="1.1" x="0" y="0" viewBox="-0.002500176429748535 0 53.98374938964844 59.49000549316406" enable-background="new 0 0 53.98 59.48" xml:space="preserve" width="159.98299241229856" height="176.30100178342664" class="icon-icon-0" data-fill-palette-color="accent" id="icon-0"><g fill="#ffffff" data-fill-palette-color="accent"><path d="M22.18 31.98c-0.39-0.39-1.02-0.39-1.41 0-1.28 1.28-1.98 2.98-1.98 4.79s0.7 3.51 1.98 4.79c0.2 0.2 0.45 0.29 0.71 0.29s0.51-0.1 0.71-0.29c0.39-0.39 0.39-1.02 0-1.41-0.9-0.9-1.4-2.1-1.4-3.37s0.5-2.47 1.4-3.37C22.57 33 22.57 32.37 22.18 31.98z" fill="#ffffff" data-fill-palette-color="accent"></path><path d="M22.53 13.1c-3.68-0.63-7.19 1.82-7.84 5.5-0.46 2.59-2.93 4.33-5.52 3.87-0.55-0.09-1.06 0.27-1.16 0.81s0.27 1.06 0.81 1.16c0.39 0.07 0.79 0.1 1.17 0.1 3.22 0 6.09-2.32 6.66-5.6 0.45-2.59 2.93-4.33 5.52-3.87 0.55 0.09 1.06-0.27 1.16-0.81C23.44 13.72 23.08 13.2 22.53 13.1z" fill="#ffffff" data-fill-palette-color="accent"></path><path d="M52.55 22.69c-0.77-1.2-1.21-3.81-1.11-5.4 0.22-3.71-1.74-7.39-4.79-8.95-0.59-0.3-1.12-0.45-1.58-0.59-0.8-0.23-1.13-0.33-1.43-0.96-1.28-2.67-2.7-3.61-5.41-3.61-0.4 0-0.83 0.02-1.32 0.05-0.28 0-0.72-0.47-1.14-0.92-0.74-0.79-1.73-1.85-3.3-2.03l-0.5-0.05c-1.68 0-3.31 0.5-4.46 1.37-0.27 0.2-0.59 0.38-1.01 0.01C25.6 0.83 24.18 0 22.86 0c-0.46 0-0.87 0.1-1.23 0.3-1.56 0.31-2.55 1.3-3.29 2.03-0.49 0.49-0.91 0.9-1.28 0.9 0 0 0 0 0 0-0.47-0.03-0.9-0.05-1.3-0.05-2.71 0-4.13 0.95-5.41 3.61-0.3 0.63-0.63 0.72-1.43 0.96C8.44 7.88 7.92 8.04 7.33 8.34c-3.04 1.56-5.01 5.24-4.79 8.95 0.1 1.59-0.34 4.2-1.11 5.4-1.91 2.97-1.91 7.11 0 10.08 0.29 0.46 0.73 0.99 1.23 1.61 0.89 1.1 2.39 2.95 2.33 3.79-0.23 3.74 2.05 8.04 5.08 9.6 0.55 0.28 0.64 0.56 0.84 1.42 0.11 0.47 0.26 1.06 0.56 1.7 0.82 1.71 2.11 2.2 3.06 2.56 0.94 0.36 1.32 0.5 1.46 1.53 0.39 2.83 2.06 4.51 4.48 4.51 2.15 0 4.48-1.45 5.92-3.7 0.18-0.27 0.47-0.3 0.59-0.3s0.41 0.03 0.59 0.3c1.45 2.25 3.78 3.7 5.93 3.7 1.86 0 4.02-1.19 4.48-4.51 0.14-1.03 0.53-1.17 1.46-1.53 0.94-0.36 2.23-0.85 3.06-2.56 0.3-0.63 0.45-1.22 0.56-1.7 0.21-0.86 0.3-1.14 0.84-1.42 3.03-1.55 5.31-5.86 5.08-9.6-0.05-0.84 1.44-2.69 2.33-3.79 0.5-0.62 0.93-1.15 1.23-1.61C54.46 29.8 54.46 25.65 52.55 22.69zM51.95 28.3c-0.09-0.46-0.48-0.82-0.96-0.82-0.55 0-1 0.45-1 1s0.45 1 1 1c0.4 0 0.75-0.24 0.91-0.59-0.14 0.92-0.45 1.8-0.92 2.59-0.54 0.01-0.99 0.45-0.99 1 0 0.1 0.03 0.2 0.06 0.29-0.09 0.11-0.18 0.23-0.28 0.35-0.12 0.15-0.25 0.3-0.37 0.46-0.13-0.06-0.26-0.09-0.41-0.09-0.55 0-1 0.45-1 1 0 0.24 0.1 0.46 0.24 0.63-0.17 0.25-0.33 0.5-0.48 0.75-0.18-0.23-0.45-0.38-0.77-0.38-0.55 0-1 0.45-1 1s0.45 1 1 1c0.03 0 0.06-0.02 0.09-0.02-0.06 0.28-0.11 0.56-0.09 0.82 0.02 0.39 0 0.8-0.04 1.2-0.53 0.02-0.96 0.45-0.96 0.99 0 0.38 0.22 0.7 0.53 0.87-0.16 0.48-0.35 0.96-0.59 1.41 0.03-0.09 0.06-0.18 0.06-0.28 0-0.55-0.45-1-1-1s-1 0.45-1 1 0.45 1 1 1c0.26 0 0.5-0.11 0.68-0.28-0.71 1.22-1.64 2.24-2.68 2.77-0.48 0.25-0.82 0.54-1.07 0.85 0.04-0.11 0.07-0.23 0.07-0.35 0-0.55-0.45-1-1-1s-1 0.45-1 1 0.45 1 1 1c0.25 0 0.48-0.1 0.65-0.26-0.28 0.49-0.41 1-0.52 1.49-0.06 0.26-0.14 0.52-0.22 0.79-0.51 0.05-0.9 0.46-0.9 0.98 0 0.14 0.03 0.27 0.08 0.39-0.33 0.29-0.71 0.46-1.14 0.62-0.21 0.01-0.39 0.09-0.55 0.21-0.84 0.34-1.8 0.86-2.23 2.25-0.1 0.15-0.17 0.33-0.17 0.52 0 0.05 0.02 0.09 0.03 0.13 0 0.03-0.01 0.05-0.02 0.08-0.06 0.42-0.15 0.79-0.28 1.12-0.18-0.2-0.44-0.33-0.73-0.33-0.55 0-1 0.45-1 1 0 0.34 0.18 0.63 0.45 0.81-0.28 0.12-0.59 0.19-0.94 0.19-0.56 0-1.14-0.15-1.71-0.44 0.11-0.16 0.2-0.35 0.2-0.56 0-0.55-0.45-1-1-1-0.32 0-0.6 0.16-0.78 0.4-0.2-0.2-0.39-0.42-0.57-0.65 0.21-0.18 0.35-0.44 0.35-0.75 0-0.55-0.45-1-1-1-0.28 0-0.54 0.12-0.72 0.31-0.39-0.2-0.82-0.32-1.28-0.32-0.93 0-1.78 0.46-2.27 1.22-1.07 1.67-2.78 2.79-4.24 2.79-1.36 0-2.25-0.99-2.5-2.79-0.3-2.2-1.71-2.74-2.74-3.12-0.83-0.32-1.49-0.57-1.96-1.56-0.15-0.3-0.24-0.6-0.31-0.9 0-0.04 0.02-0.07 0.02-0.12 0-2.76 2.24-5 5-5 0.55 0 1-0.45 1-1s-0.45-1-1-1c-2.91 0-5.41 1.79-6.47 4.32-0.16-0.12-0.33-0.23-0.54-0.34-2.31-1.18-4.17-4.78-4-7.7 0-0.07-0.01-0.14-0.01-0.22 0-0.02 0.01-0.05 0.01-0.07 0-3.31 2.69-6 6-6 4.41 0 8-3.59 8-8 0-0.55-0.45-1-1-1s-1 0.45-1 1c0 3.31-2.69 6-6 6-3.32 0-6.17 2.03-7.38 4.92-0.44-0.61-0.93-1.22-1.4-1.8-0.44-0.55-0.86-1.07-1.1-1.43-1.5-2.33-1.5-5.59 0-7.92 1.04-1.62 1.54-4.63 1.42-6.6-0.18-2.89 1.38-5.86 3.71-7.05C8.66 9.9 9.07 9.79 9.46 9.67c0.21-0.06 0.43-0.13 0.66-0.21C10.29 9.78 10.61 10 10.99 10c1.65 0 3 1.35 3 3 0 0.55 0.45 1 1 1s1-0.45 1-1c0-2.44-1.77-4.48-4.09-4.91 0.08-0.13 0.17-0.27 0.24-0.43 1.02-2.12 1.8-2.48 3.61-2.48 0.36 0 0.75 0.02 1.17 0.04l0.16 0c1.16 0 1.95-0.79 2.65-1.48 0.7-0.69 1.36-1.35 2.4-1.51l0.33-0.06 0.16-0.14C22.68 2.01 22.76 2 22.86 2c0.61 0 1.58 0.47 2.31 1.11 0.9 0.79 2.29 0.86 3.32 0.22 0.15 0.09 0.31 0.15 0.5 0.15 0.53 0 0.95-0.42 0.99-0.94 0.48-0.16 1.01-0.27 1.54-0.3l0.47 0.01c0.02 0 0.03 0.01 0.05 0.01-0.02 0.07-0.05 0.15-0.05 0.23 0 0.55 0.45 1 1 1 0.31 0 0.58-0.15 0.76-0.37 0.17 0.17 0.35 0.35 0.55 0.56 0.02 0.02 0.03 0.04 0.05 0.05-0.22 0.18-0.36 0.45-0.36 0.75 0 0.55 0.45 1 1 1 0.37 0 0.68-0.21 0.86-0.51 0.32 0.16 0.66 0.26 1.06 0.26l0.15 0c0.42-0.03 0.81-0.04 1.17-0.04 0.02 0 0.03 0 0.05 0 0.18 0.18 0.43 0.3 0.71 0.3 0.2 0 0.38-0.08 0.54-0.18 0.33 0.08 0.62 0.2 0.88 0.39-0.25 0.18-0.42 0.46-0.42 0.79 0 0.55 0.45 1 1 1 0.24 0 0.45-0.1 0.63-0.24 0.07 0.14 0.14 0.26 0.22 0.42 0.08 0.16 0.16 0.29 0.24 0.42-0.05 0.12-0.08 0.26-0.08 0.4 0 0.55 0.45 1 1 1 0.19 0 0.36-0.07 0.51-0.16 0.32 0.14 0.65 0.24 0.96 0.33-0.28 0.18-0.47 0.47-0.47 0.83 0 0.55 0.45 1 1 1s1-0.45 1-1c0-0.08-0.03-0.16-0.05-0.24 1.22 0.7 2.21 1.88 2.82 3.28-0.44 0.11-0.77 0.48-0.77 0.95 0 0.55 0.45 1 1 1 0.12 0 0.23-0.03 0.34-0.07 0.1 0.58 0.15 1.16 0.12 1.75-0.01 0.14-0.01 0.29-0.01 0.43-0.14-0.07-0.28-0.12-0.45-0.12-0.55 0-1 0.45-1 1s0.45 1 1 1c0.2 0 0.38-0.07 0.53-0.18 0.17 1.52 0.58 3.12 1.21 4.23-0.43 0.11-0.75 0.49-0.75 0.95 0 0.55 0.45 1 1 1 0.22 0 0.42-0.09 0.58-0.21C51.9 26.24 52.03 27.27 51.95 28.3z" fill="#ffffff" data-fill-palette-color="accent"></path><circle cx="34.99" cy="52.48" r="1.0" fill="#ffffff" data-fill-palette-color="accent"></circle><circle cx="30.99" cy="52.48" r="1.0" fill="#ffffff" data-fill-palette-color="accent"></circle><circle cx="32.99" cy="50.48" r="1.0" fill="#ffffff" data-fill-palette-color="accent"></circle><circle cx="36.99" cy="50.48" r="1.0" fill="#ffffff" data-fill-palette-color="accent"></circle><circle cx="28.99" cy="50.48" r="1.0" fill="#ffffff" data-fill-palette-color="accent"></circle><circle cx="36.99" cy="46.48" r="1.0" fill="#ffffff" data-fill-palette-color="accent"></circle><circle cx="28.99" cy="46.48" r="1.0" fill="#ffffff" data-fill-palette-color="accent"></circle><circle cx="30.99" cy="44.48" r="1.0" fill="#ffffff" data-fill-palette-color="accent"></circle><circle cx="32.99" cy="42.48" r="1.0" fill="#ffffff" data-fill-palette-color="accent"></circle><circle cx="36.99" cy="42.48" r="1.0" fill="#ffffff" data-fill-palette-color="accent"></circle><circle cx="28.99" cy="42.48" r="1.0" fill="#ffffff" data-fill-palette-color="accent"></circle><circle cx="34.99" cy="40.48" r="1.0" fill="#ffffff" data-fill-palette-color="accent"></circle><circle cx="28.99" cy="38.48" r="1.0" fill="#ffffff" data-fill-palette-color="accent"></circle><circle cx="34.99" cy="36.48" r="1.0" fill="#ffffff" data-fill-palette-color="accent"></circle><circle cx="30.99" cy="36.48" r="1.0" fill="#ffffff" data-fill-palette-color="accent"></circle><circle cx="28.99" cy="34.48" r="1.0" fill="#ffffff" data-fill-palette-color="accent"></circle><circle cx="30.99" cy="32.48" r="1.0" fill="#ffffff" data-fill-palette-color="accent"></circle><circle cx="32.99" cy="30.48" r="1.0" fill="#ffffff" data-fill-palette-color="accent"></circle><circle cx="36.99" cy="30.48" r="1.0" fill="#ffffff" data-fill-palette-color="accent"></circle><circle cx="28.99" cy="30.48" r="1.0" fill="#ffffff" data-fill-palette-color="accent"></circle><circle cx="34.99" cy="28.48" r="1.0" fill="#ffffff" data-fill-palette-color="accent"></circle><circle cx="32.99" cy="26.48" r="1.0" fill="#ffffff" data-fill-palette-color="accent"></circle><circle cx="36.99" cy="26.48" r="1.0" fill="#ffffff" data-fill-palette-color="accent"></circle><circle cx="28.99" cy="26.48" r="1.0" fill="#ffffff" data-fill-palette-color="accent"></circle><circle cx="30.99" cy="24.48" r="1.0" fill="#ffffff" data-fill-palette-color="accent"></circle><circle cx="32.99" cy="22.48" r="1.0" fill="#ffffff" data-fill-palette-color="accent"></circle><circle cx="34.99" cy="20.48" r="1.0" fill="#ffffff" data-fill-palette-color="accent"></circle><circle cx="30.99" cy="20.48" r="1.0" fill="#ffffff" data-fill-palette-color="accent"></circle><circle cx="28.99" cy="18.48" r="1.0" fill="#ffffff" data-fill-palette-color="accent"></circle><circle cx="34.99" cy="16.48" r="1.0" fill="#ffffff" data-fill-palette-color="accent"></circle><circle cx="30.99" cy="16.48" r="1.0" fill="#ffffff" data-fill-palette-color="accent"></circle><circle cx="32.99" cy="14.48" r="1.0" fill="#ffffff" data-fill-palette-color="accent"></circle><circle cx="36.99" cy="14.48" r="1.0" fill="#ffffff" data-fill-palette-color="accent"></circle><circle cx="34.99" cy="12.48" r="1.0" fill="#ffffff" data-fill-palette-color="accent"></circle><circle cx="30.99" cy="12.48" r="1.0" fill="#ffffff" data-fill-palette-color="accent"></circle><circle cx="28.99" cy="10.48" r="1.0" fill="#ffffff" data-fill-palette-color="accent"></circle><circle cx="34.99" cy="8.48" r="1.0" fill="#ffffff" data-fill-palette-color="accent"></circle><circle cx="36.99" cy="6.48" r="1.0" fill="#ffffff" data-fill-palette-color="accent"></circle><circle cx="28.99" cy="6.48" r="1.0" fill="#ffffff" data-fill-palette-color="accent"></circle><circle cx="30.99" cy="4.48" r="1.0" fill="#ffffff" data-fill-palette-color="accent"></circle><circle cx="38.99" cy="48.48" r="1.0" fill="#ffffff" data-fill-palette-color="accent"></circle><circle cx="42.99" cy="44.48" r="1.0" fill="#ffffff" data-fill-palette-color="accent"></circle><circle cx="40.99" cy="42.48" r="1.0" fill="#ffffff" data-fill-palette-color="accent"></circle><circle cx="42.99" cy="40.48" r="1.0" fill="#ffffff" data-fill-palette-color="accent"></circle><circle cx="44.99" cy="38.48" r="1.0" fill="#ffffff" data-fill-palette-color="accent"></circle><circle cx="42.99" cy="36.48" r="1.0" fill="#ffffff" data-fill-palette-color="accent"></circle><circle cx="38.99" cy="36.48" r="1.0" fill="#ffffff" data-fill-palette-color="accent"></circle><circle cx="42.99" cy="32.48" r="1.0" fill="#ffffff" data-fill-palette-color="accent"></circle><circle cx="46.99" cy="32.48" r="1.0" fill="#ffffff" data-fill-palette-color="accent"></circle><circle cx="38.99" cy="32.48" r="1.0" fill="#ffffff" data-fill-palette-color="accent"></circle><circle cx="42.99" cy="28.48" r="1.0" fill="#ffffff" data-fill-palette-color="accent"></circle><circle cx="46.99" cy="28.48" r="1.0" fill="#ffffff" data-fill-palette-color="accent"></circle><circle cx="40.99" cy="26.48" r="1.0" fill="#ffffff" data-fill-palette-color="accent"></circle><circle cx="42.99" cy="24.48" r="1.0" fill="#ffffff" data-fill-palette-color="accent"></circle><circle cx="44.99" cy="22.48" r="1.0" fill="#ffffff" data-fill-palette-color="accent"></circle><circle cx="40.99" cy="22.48" r="1.0" fill="#ffffff" data-fill-palette-color="accent"></circle><circle cx="42.99" cy="20.48" r="1.0" fill="#ffffff" data-fill-palette-color="accent"></circle><circle cx="38.99" cy="20.48" r="1.0" fill="#ffffff" data-fill-palette-color="accent"></circle><circle cx="44.99" cy="18.48" r="1.0" fill="#ffffff" data-fill-palette-color="accent"></circle><circle cx="46.99" cy="16.48" r="1.0" fill="#ffffff" data-fill-palette-color="accent"></circle><circle cx="44.99" cy="14.48" r="1.0" fill="#ffffff" data-fill-palette-color="accent"></circle><circle cx="40.99" cy="14.48" r="1.0" fill="#ffffff" data-fill-palette-color="accent"></circle><circle cx="46.99" cy="12.48" r="1.0" fill="#ffffff" data-fill-palette-color="accent"></circle><circle cx="38.99" cy="12.48" r="1.0" fill="#ffffff" data-fill-palette-color="accent"></circle><circle cx="40.99" cy="10.48" r="1.0" fill="#ffffff" data-fill-palette-color="accent"></circle><circle cx="48.99" cy="26.48" r="1.0" fill="#ffffff" data-fill-palette-color="accent"></circle><circle cx="48.99" cy="22.48" r="1.0" fill="#ffffff" data-fill-palette-color="accent"></circle></g></svg></g></svg></g></svg></g><defs></defs></svg><rect width="395.52" height="122.93090909304826" fill="none" stroke="none" visibility="hidden"></rect></g></svg></g></svg>